Coordinates
version=1
nRows=29
nColumns=22
inDegrees=yes

Units are S.I. units (second, meters, Newtons, ...)
If the header above contains a line with 'inDegrees', this indicates whether rotational values are in degrees (yes) or radians (no).

endheader
time	pelvis_tilt	pelvis_list	pelvis_rotation	pelvis_tx	pelvis_ty	pelvis_tz	hip_flexion_r	hip_adduction_r	hip_rotation_r	knee_angle_r	ankle_angle_r	subtalar_angle_r	hip_flexion_l	hip_adduction_l	hip_rotation_l	knee_angle_l	ankle_angle_l	subtalar_angle_l	lumbar_extension	lumbar_bending	lumbar_rotation
      4.53000000	      4.59670598	     -3.33964654	      5.27393954	      0.38826712	      1.08499722	     -0.30039372	     -2.85845443	      8.27400597	     -4.82973098	     -7.37556060	      7.47559428	     -4.74277384	      8.06066404	     -5.17644519	      3.96125761	    -28.37457367	     14.92127951	      2.81280462	     -6.09142418	      1.88763276	     -1.33007887
      4.54000000	      4.54362847	     -3.34989271	      5.15784922	      0.39100862	      1.08490265	     -0.30053144	     -3.02613693	      8.27234330	     -4.73297558	     -7.27174977	      7.55758798	     -4.60394658	      7.73657980	     -5.21193803	      3.59953307	    -27.67627873	     14.48557569	      2.24941708	     -5.98718355	      1.89377446	     -1.37573209
      4.55000000	      4.50487456	     -3.37635171	      5.07255953	      0.39371677	      1.08479743	     -0.30077141	     -3.20771698	      8.28643228	     -4.66980336	     -7.16354055	      7.63722301	     -4.47077618	      7.39146495	     -5.27236140	      3.21784146	    -27.02837540	     14.13913671	      1.68635711	     -5.89085793	      1.92587961	     -1.46890034
      4.56000000	      4.45694592	     -3.38717115	      4.97969865	      0.39640366	      1.08466833	     -0.30104458	     -3.38611985	      8.28062615	     -4.58698032	     -7.04468186	      7.72223255	     -4.36145326	      7.03219762	     -5.32523354	      2.78876377	    -26.41343517	     13.93349418	      1.24012678	     -5.78039805	      1.93696957	     -1.56018673
      4.57000000	      4.41944520	     -3.40089161	      4.90537401	      0.39907311	      1.08454367	     -0.30139750	     -3.58118159	      8.27777442	     -4.52167807	     -6.91156411	      7.81000143	     -4.27344033	      6.64269410	     -5.38009186	      2.38067159	    -25.82534143	     13.84717656	      0.87159771	     -5.67367938	      1.95312414	     -1.65984566
      4.58000000	      4.36005212	     -3.40508159	      4.82932918	      0.40166926	      1.08437769	     -0.30179502	     -3.73842873	      8.25960536	     -4.43517533	     -6.80207215	      7.91546806	     -4.22728212	      6.26142430	     -5.42240824	      1.98459579	    -25.26226418	     13.88590699	      0.65018000	     -5.54621247	      1.95887755	     -1.78314037
      4.59000000	      4.34686927	     -3.40808454	      4.80035215	      0.40425912	      1.08428236	     -0.30230707	     -3.96299242	      8.24669846	     -4.40269742	     -6.65032278	      8.01097810	     -4.20548220	      5.81866080	     -5.45952820	      1.65614800	    -24.70583917	     13.98097193	      0.43820362	     -5.46336836	      1.96854142	     -1.93964291
      4.60000000	      4.31373399	     -3.39434627	      4.78613768	      0.40676282	      1.08416890	     -0.30288122	     -4.14924637	      8.21294417	     -4.36688541	     -6.52320934	      8.11601130	     -4.23118418	      5.39329037	     -5.47147910	      1.37751417	    -24.15774295	     14.12749825	      0.33649232	     -5.36253353	      1.96014162	     -2.13157385
      4.61000000	      4.26811001	     -3.36508037	      4.78988947	      0.40918874	      1.08406086	     -0.30351539	     -4.30847510	      8.16139428	     -4.33789179	     -6.41375843	      8.23579725	     -4.30049988	      4.98208889	     -5.45828225	      1.16174217	    -23.61143220	     14.28707638	      0.31530874	     -5.25028485	      1.93302494	     -2.33900811
      4.62000000	      4.20970722	     -3.31653485	      4.81166805	      0.41152466	      1.08397312	     -0.30418902	     -4.43548591	      8.08910997	     -4.31545822	     -6.33025801	      8.35864770	     -4.40348114	      4.59644237	     -5.41768048	      1.00075136	    -23.07352191	     14.42008087	      0.35039602	     -5.12844633	      1.88109631	     -2.57200243
      4.63000000	      4.13310377	     -3.24963679	      4.85129376	      0.41376488	      1.08390191	     -0.30490977	     -4.52518803	      7.99512276	     -4.30695124	     -6.26966841	      8.48254701	     -4.51915223	      4.25408759	     -5.35121909	      0.88001760	    -22.55905950	     14.50980527	      0.41814777	     -4.99098714	      1.80671729	     -2.81741845
      4.64000000	      4.06646597	     -3.16018610	      4.90553857	      0.41594408	      1.08389892	     -0.30565616	     -4.61805793	      7.87938408	     -4.32623596	     -6.21579683	      8.60309337	     -4.66611158	      3.92367744	     -5.25923980	      0.77999087	    -22.06767816	     14.54954714	      0.52529227	     -4.86712112	      1.70376930	     -3.06087249
      4.65000000	      3.96836321	     -3.04896131	      4.96209552	      0.41798332	      1.08390766	     -0.30642223	     -4.63496704	      7.73339920	     -4.34322801	     -6.23220659	      8.72181943	     -4.74857918	      3.65296408	     -5.13052698	      0.73431988	    -21.60389304	     14.54065212	      0.61636741	     -4.72031109	      1.57458839	     -3.31402141
      4.66000000	      3.87103211	     -2.91494292	      5.02205668	      0.41995005	      1.08397083	     -0.30721264	     -4.63665448	      7.56065779	     -4.38176595	     -6.27427762	      8.82888320	     -4.79428107	      3.40089698	     -4.97082774	      0.71008205	    -21.16360690	     14.49348943	      0.70926753	     -4.57934332	      1.41962161	     -3.55731396
      4.67000000	      3.77994451	     -2.76529410	      5.07875707	      0.42184910	      1.08408321	     -0.30801316	     -4.62655218	      7.36848066	     -4.44394695	     -6.34636240	      8.92282687	     -4.79199630	      3.15606543	     -4.79032271	      0.69449952	    -20.74176726	     14.41620890	      0.79920101	     -4.44958496	      1.24617179	     -3.77990137
      4.68000000	      3.69469005	     -2.60492396	      5.12464098	      0.42367697	      1.08423016	     -0.30881980	     -4.60514619	      7.16115098	     -4.51904690	     -6.44689399	      9.00569794	     -4.73678628	      2.91350159	     -4.59326169	      0.67890273	    -20.33154185	     14.31974127	      0.87632888	     -4.33211949	      1.06222319	     -3.97550644
      4.69000000	      3.61780080	     -2.44074453	      5.15513054	      0.42544046	      1.08439798	     -0.30962257	     -4.57922737	      6.94671613	     -4.60027660	     -6.56762799	      9.08383135	     -4.63496193	      2.66472994	     -4.38830035	      0.65348686	    -19.92557933	     14.21551312	      0.93421136	     -4.22949150	      0.87527758	     -4.13628418
      4.70000000	      3.54817486	     -2.28112617	      5.16617791	      0.42713229	      1.08456562	     -0.31042146	     -4.55030553	      6.73368904	     -4.67235143	     -6.70084249	      9.15752595	     -4.50814109	      2.41005969	     -4.18467456	      0.61026939	    -19.52202578	     14.11473158	      0.96534602	     -4.14162904	      0.69687099	     -4.25714463
      4.71000000	      3.51247063	     -2.13723645	      5.15788103	      0.42879244	      1.08475964	     -0.31121487	     -4.55933490	      6.53728198	     -4.73910176	     -6.82431016	      9.24215982	     -4.31248795	      2.11069576	     -3.99792029	      0.54753639	    -19.10463991	     14.02165007	      0.95248347	     -4.09329787	      0.54102984	     -4.32444974
      4.72000000	      3.44479552	     -1.99606627	      5.12785508	      0.43033305	      1.08487152	     -0.31199476	     -4.51525736	      6.33805137	     -4.75972720	     -6.97225744	      9.31121756	     -4.22169397	      1.86287472	     -3.80807176	      0.46136880	    -18.71421775	     13.94238009	      0.93826751	     -4.02102304	      0.38871633	     -4.37909351
      4.73000000	      3.40115670	     -1.86819225	      5.07887540	      0.43184445	      1.08497833	     -0.31277233	     -4.50122167	      6.15247217	     -4.76659462	     -7.10672529	      9.40475786	     -4.11773735	      1.58585092	     -3.63281721	      0.35356338	    -18.31792232	     13.86972827	      0.89506091	     -3.97532990	      0.25569191	     -4.39069553
      4.74000000	      3.36962762	     -1.75464169	      5.01420964	      0.43330036	      1.08506502	     -0.31355143	     -4.50189898	      5.98087873	     -4.75021390	     -7.22815254	      9.49787124	     -4.02567192	      1.30053593	     -3.47204848	      0.23142328	    -17.92692889	     13.81251951	      0.83753411	     -3.94696116	      0.14505840	     -4.37644191
      4.75000000	      3.35183828	     -1.65449555	      4.93906737	      0.43471862	      1.08513515	     -0.31432725	     -4.52265983	      5.82396058	     -4.71418512	     -7.33297875	      9.59387310	     -3.94959462	      1.00845783	     -3.32658534	      0.09804825	    -17.54668518	     13.76637815	      0.77432929	     -3.93376597	      0.05378580	     -4.34732686
      4.76000000	      3.34305873	     -1.56685694	      4.85741621	      0.43610237	      1.08519037	     -0.31510959	     -4.55638755	      5.67976417	     -4.66558217	     -7.42559238	      9.68773264	     -3.89519624	      0.71750459	     -3.19393906	     -0.03519341	    -17.18246683	     13.73418573	      0.71921538	     -3.92689948	     -0.02045067	     -4.31436908
      4.77000000	      3.34626702	     -1.49181658	      4.77457159	      0.43746003	      1.08523948	     -0.31589390	     -4.61054634	      5.55039709	     -4.60949368	     -7.49806599	      9.77780625	     -3.85628132	      0.42556945	     -3.07539377	     -0.16603197	    -16.83534685	     13.71081411	      0.67341514	     -3.92880927	     -0.07749757	     -4.28603407
      4.78000000	      3.39025517	     -1.43667952	      4.69618594	      0.43882210	      1.08533327	     -0.31668193	     -4.72664830	      5.44718531	     -4.55223923	     -7.53151540	      9.84221044	     -3.81966659	      0.09441252	     -2.98168425	     -0.28714791	    -16.49235322	     13.69325660	      0.62182475	     -3.96707422	     -0.10748676	     -4.26304470
      4.79000000	      3.36974360	     -1.37524699	      4.62736144	      0.44010099	      1.08531675	     -0.31747009	     -4.75890382	      5.33142330	     -4.50714696	     -7.58675477	      9.93437971	     -3.81162399	     -0.13904250	     -2.87517633	     -0.39016132	    -16.19118389	     13.69175797	      0.61342342	     -3.93206462	     -0.15314920	     -4.27214370
      4.80000000	      3.37849539	     -1.31882646	      4.55883121	      0.44138848	      1.08533999	     -0.31825995	     -4.83933077	      5.22426272	     -4.45812407	     -7.60934244	     10.01152040	     -3.80448937	     -0.40605698	     -2.77605304	     -0.48999906	    -15.88591177	     13.68160186	      0.60272347	     -3.91924717	     -0.18934765	     -4.28954524
      4.81000000	      3.38757928	     -1.26694685	      4.50980397	      0.44265512	      1.08536201	     -0.31907970	     -4.92742092	      5.12367680	     -4.41802708	     -7.61426506	     10.08102061	     -3.80139725	     -0.66666477	     -2.68059738	     -0.56935566	    -15.58482190	     13.67368638	      0.59438498	     -3.89981912	     -0.21965755	     -4.33272444
